<?xml version="1.0" encoding="utf-8"?>
<!-- Generator: Adobe Illustrator 17.0.0, SVG Export Plug-In . SVG Version: 6.00 Build 0)  -->
<!DOCTYPE svg PUBLIC "-//W3C//DTD SVG 1.1//EN" "http://www.w3.org/Graphics/SVG/1.1/DTD/svg11.dtd">
<svg version="1.1" id="fe80fb2b-bcaf-407e-919b-306adc32f78b"
	 xmlns="http://www.w3.org/2000/svg" xmlns:xlink="http://www.w3.org/1999/xlink" x="0px" y="0px" width="1032px"
	 height="741.753px" viewBox="0 0 1032 741.753" enable-background="new 0 0 1032 741.753" xml:space="preserve">
<title>profile</title>
<line fill="none" stroke="#3F3D56" stroke-miterlimit="10" x1="0" y1="741.253" x2="166" y2="741.253"/>
<path fill="#F2F2F2" d="M262.398,127.753h698.205c10.713,0,19.398,8.685,19.398,19.398v460.205c0,10.713-8.685,19.398-19.398,19.398
	H262.398c-10.713,0-19.398-8.685-19.398-19.398V147.15C243,136.437,251.685,127.753,262.398,127.753z"/>
<path fill="none" stroke="#3F3D56" stroke-miterlimit="10" d="M239.898,96.253h698.205c10.713,0,19.398,8.685,19.398,19.398v460.205
	c0,10.713-8.685,19.398-19.398,19.398H239.898c-10.713,0-19.398-8.685-19.398-19.398V115.65
	C220.5,104.937,229.185,96.253,239.898,96.253z"/>
<line fill="none" stroke="#3F3D56" stroke-miterlimit="10" x1="220.5" y1="144.093" x2="957.5" y2="144.093"/>
<path opacity="0.3" fill="#6C63FF" enable-background="new    " d="M668.093,256.253h186.815c3.917,0,7.093,3.175,7.093,7.093
	v16.815c0,3.917-3.175,7.093-7.093,7.093H668.093c-3.917,0-7.093-3.175-7.093-7.093v-16.815
	C661,259.428,664.175,256.253,668.093,256.253z"/>
<path opacity="0.3" fill="#6C63FF" enable-background="new    " d="M629.593,342.253h263.815c3.917,0,7.093,3.175,7.093,7.093
	v10.815c0,3.917-3.175,7.093-7.093,7.093H629.593c-3.917,0-7.093-3.175-7.093-7.093v-10.815
	C622.5,345.428,625.675,342.253,629.593,342.253z"/>
<path opacity="0.3" fill="#6C63FF" enable-background="new    " d="M629.593,410.253h263.815c3.917,0,7.093,3.175,7.093,7.093
	v10.815c0,3.917-3.175,7.093-7.093,7.093H629.593c-3.917,0-7.093-3.175-7.093-7.093v-10.815
	C622.5,413.428,625.675,410.253,629.593,410.253z"/>
<path opacity="0.3" fill="#6C63FF" enable-background="new    " d="M629.593,478.253h263.815c3.917,0,7.093,3.175,7.093,7.093
	v10.815c0,3.917-3.175,7.093-7.093,7.093H629.593c-3.917,0-7.093-3.175-7.093-7.093v-10.815
	C622.5,481.428,625.675,478.253,629.593,478.253z"/>
<path fill="none" stroke="#3F3D56" stroke-miterlimit="10" d="M678.093,246.253h186.815c3.917,0,7.093,3.175,7.093,7.093v16.815
	c0,3.917-3.175,7.093-7.093,7.093H678.093c-3.917,0-7.093-3.175-7.093-7.093v-16.815C671,249.428,674.175,246.253,678.093,246.253z"
	/>
<path fill="none" stroke="#3F3D56" stroke-miterlimit="10" d="M639.593,332.253h263.815c3.917,0,7.093,3.175,7.093,7.093v10.815
	c0,3.917-3.175,7.093-7.093,7.093H639.593c-3.917,0-7.093-3.175-7.093-7.093v-10.815C632.5,335.428,635.675,332.253,639.593,332.253
	z"/>
<path fill="none" stroke="#3F3D56" stroke-miterlimit="10" d="M639.593,400.253h263.815c3.917,0,7.093,3.175,7.093,7.093v10.815
	c0,3.917-3.175,7.093-7.093,7.093H639.593c-3.917,0-7.093-3.175-7.093-7.093v-10.815C632.5,403.428,635.675,400.253,639.593,400.253
	z"/>
<path fill="none" stroke="#3F3D56" stroke-miterlimit="10" d="M639.593,468.253h263.815c3.917,0,7.093,3.175,7.093,7.093v10.815
	c0,3.917-3.175,7.093-7.093,7.093H639.593c-3.917,0-7.093-3.175-7.093-7.093v-10.815C632.5,471.428,635.675,468.253,639.593,468.253
	z"/>
<circle opacity="0.3" fill="#6C63FF" enable-background="new    " cx="276.5" cy="126.253" r="15"/>
<circle opacity="0.3" fill="#6C63FF" enable-background="new    " cx="318.5" cy="126.253" r="15"/>
<circle opacity="0.3" fill="#6C63FF" enable-background="new    " cx="360.5" cy="126.253" r="15"/>
<circle fill="none" stroke="#3F3D56" stroke-miterlimit="10" cx="282.5" cy="120.253" r="15"/>
<circle fill="none" stroke="#3F3D56" stroke-miterlimit="10" cx="324.5" cy="120.253" r="15"/>
<circle fill="none" stroke="#3F3D56" stroke-miterlimit="10" cx="366.5" cy="120.253" r="15"/>
<path fill="#6C63FF" d="M453.354,574.253c-2.511-11.568-3.177-27.369-2.333-38.36c0,0-12.698-55.786-22.69-60.991l-0.003,0.003
	c-0.153,0.197-5.002,6.554-5.617,26.224c-0.625,19.983-7.7,33.097-7.7,33.097s2.29,24.908,0.98,40.028L453.354,574.253z"/>
<linearGradient id="SVGID_1_" gradientUnits="userSpaceOnUse" x1="291.5" y1="396.7527" x2="569.5" y2="396.7527">
	<stop  offset="0" style="stop-color:#8693F2"/>
	<stop  offset="1" style="stop-color:#3548CB"/>
</linearGradient>
<path fill="url(#SVGID_1_)" d="M545.728,219.253H315.272c-13.129,0-23.772,10.643-23.772,23.772c0,0,0,0,0,0v307.457
	c0,13.129,10.643,23.772,23.772,23.772h0h80.855c-2.7-11.199-6.057-28.691-2.657-40.852l-0.002-0.008l0.002,0.005
	c0.159-0.568,0.327-1.127,0.516-1.67c2.335-7.893,3.114-16.164,2.292-24.354c1.501-6.998,1.501-14.234,0-21.232
	c-2.498-11.656-4.246-23.105-4.246-23.105s-1.377-15.402-0.175-24.844c0.027-0.207,0.058-0.404,0.087-0.605
	c-0.424-0.097-0.662-0.152-0.662-0.152s3.539-16.028,4.788-26.227c0.295-2.408,0.683-5.46,1.103-8.715
	c-1.153-0.192-2.288-0.479-3.393-0.86C382.539,397.677,379,361.874,379,361.874V350.53c0,0-3.747-17.381,9.367-25.083
	c12.628-7.416,17.67-9.446,18.026-9.586c0.096-0.069,0.19-0.131,0.288-0.207c1.427-1.12,2.557-2.574,3.29-4.234
	c0.017-0.286,0.022-0.57,0.012-0.852c-0.213-4.067-3.044-7.765-5.73-10.992c-2.291-2.752-4.582-5.505-6.873-8.257
	c-0.785-0.82-1.388-1.796-1.77-2.865c-0.145-0.59-0.208-1.197-0.187-1.804c-0.002-0.225,0-0.449,0.004-0.673
	c0.037-2.052,0.093-4.104,0.167-6.155c0.064-1.792,0.516-4.054,2.271-4.422c0.913-0.192,2.121,0.142,2.604-0.656
	c0.162-0.329,0.203-0.704,0.117-1.061c-0.006,0.027-0.007,0.054-0.015,0.081c-0.006-0.033-0.012-0.067-0.018-0.1
	c-0.361-1.437-0.579-2.906-0.651-4.386c-0.019-0.668,0.076-1.334,0.282-1.97c1.017-2.975,4.518-4.196,7.611-4.757
	c3.094-0.561,6.567-1.044,8.508-3.517c0.52-0.821,1.083-1.614,1.689-2.374c0.891-0.81,1.985-1.362,3.166-1.597
	c3.84-0.972,7.897-0.612,11.506,1.021c1.496,0.683,3,1.602,4.641,1.498c1.705-0.108,3.162-1.308,4.845-1.6
	c2.719-0.472,5.319,1.566,6.659,3.978c0.851,1.535,1.277,3.269,1.233,5.023c0.032,1.747-0.598,3.44-1.764,4.741
	c-1.17,1.241-2.916,2.094-3.402,3.73c-0.198,0.666-0.152,1.383-0.327,2.055c-0.022,0.084-0.057,0.162-0.086,0.244
	c0.032,0.042,0.067,0.081,0.099,0.123c7.088,9.341,5.262,22.659-4.079,29.747c-1.887,1.432-4.001,2.538-6.253,3.273
	c-0.008,0.211-0.016,0.421-0.015,0.633c-0.122,2.655,0.914,5.232,2.84,7.065l18.547,7.606c0,0,11.166-1.353,15.195,15.31
	c0.646,2.77,0.878,5.62,0.69,8.457c-0.146,2.513,0.195,6.936,3.057,12.66c4.579,9.159,3.539,30.182-5.828,32.264
	c-8.872,1.972-12.324,1.143-12.664,1.05l-0.02,0.368c0.146,3.945,1.55,37.969,6.648,42.086c1.41,1.138,1.14,1.908-0.016,2.426
	l0.003,0.003c0,0,0.009,0.219,0.031,0.612c0.153,2.488,0.94,11.965,4.353,17.357c3.956,6.245,3.541,42.257,3.541,42.257
	l2.704,21.232c0,0-1.664,13.114,0,15.402c0.946,1.298,2.091,21.404,2.905,38.57h69.53c13.129,0,23.772-10.643,23.772-23.772V243.024
	C569.5,229.896,558.857,219.253,545.728,219.253L545.728,219.253z"/>
<path fill="none" stroke="#3F3D56" stroke-miterlimit="10" d="M291.272,192.253h230.457c13.129,0,23.772,10.643,23.772,23.772
	v307.457c0,13.129-10.643,23.772-23.772,23.772H291.272c-13.129,0-23.772-10.643-23.772-23.772V216.024
	C267.5,202.896,278.143,192.253,291.272,192.253z"/>
<path fill="#2F2E41" d="M100.824,321.631c0,0-9.324-2.757-11.324,0.243s2.727,24.748,2.727,24.748l20.546,1.249l-7.17-18.107
	L100.824,321.631z"/>
<path fill="#A0616A" d="M28.944,500.221c0,0,18.695,41.042,4.298,39.753s-19.984-39.753-19.984-39.753H28.944z"/>
<path fill="#A0616A" d="M151.211,495.945c0,0-8.201,44.348,5.455,39.611s9.764-43.409,9.764-43.409L151.211,495.945z"/>
<path fill="#A0616A" d="M96.847,311.34c0,0-0.215,20.629,7.736,21.703s-4.513,12.033-4.513,12.033l-14.182,2.793l-20.414-1.504
	l-9.025-11.604c0,0,15.901-7.521,9.025-30.943L96.847,311.34z"/>
<path opacity="0.1" enable-background="new    " d="M96.847,311.34c0,0-0.215,20.629,7.736,21.703s-4.513,12.033-4.513,12.033
	l-14.182,2.793l-20.414-1.504l-9.025-11.604c0,0,15.901-7.521,9.025-30.943L96.847,311.34z"/>
<path fill="#2F2E41" d="M133.376,485.824c0,0,10.099,21.703,2.149,89.82c0,0,2.364,24.067,0.43,28.579s-17.835,65.754-17.835,65.754
	s-20.414,4.513-23.207-9.025c0,0,2.793-19.339,2.579-22.348s4.513-35.885,4.513-35.885l-9.67-63.605l-7.306,57.373
	c0,0,0,16.546-2.364,20.199s0,77.142,0,77.142s6.661,11.174-3.438,11.389s-19.124-0.215-19.984-7.306s-1.289-14.182-3.438-18.48
	s-4.942-53.505-4.298-70.696s-14.182-105.507-9.455-114.747S133.376,485.824,133.376,485.824z"/>
<circle fill="#A0616A" cx="85.888" cy="293.29" r="25.786"/>
<path fill="#F27576" d="M60.102,335.192c0,0,15.686,11.604,38.464,2.364c0,0,7.521-3.653,6.876-9.24
	c-0.645-5.587,15.686,44.91,15.686,44.91l16.546,87.886l-0.86,35.885c0,0-7.306-3.653-30.083,4.513s-59.952-9.24-59.952-9.24
	l1.289-92.184l1.289-53.72l3.438-11.818C52.796,334.547,54.515,331.324,60.102,335.192z"/>
<path fill="#2F2E41" d="M97.563,320.767c0,0,3.796-0.617,7.449,5.185c3.653,5.802,12.248,9.455,12.248,9.455
	s20.843,1.289,23.852,12.463c3.008,11.174,10.529,26.43,14.182,54.58c3.653,28.149,10.959,73.06,12.033,76.713
	s-1.504,14.827,1.504,18.265s-21.273,3.438-21.273,3.438s-2.149-17.62-3.653-17.62s-1.074,11.818,0.43,20.414s-10.959,0-10.959,0
	s-9.67-39.323-18.91-74.779s-14.612-55.01-12.893-62.96s6.446-30.728,3.008-32.877C101.144,330.894,97.563,320.767,97.563,320.767z"
	/>
<path fill="#2F2E41" d="M66.576,320.748c0,0-5.614,3.055-19.796,13.155s-23.852,17.835-23.852,17.835s-5.587,4.298-9.025,29.869
	c-3.438,25.571-11.174,91.754-8.165,100.135s4.083,13.323,3.008,18.265s22.563,4.727,22.992,3.653s-0.645-20.629,0.43-21.058
	s6.876,11.604,7.951,21.703s13.538,18.05,16.331,18.05s17.191-58.233,17.405-97.986s-4.727-73.274-8.38-78.002
	C61.821,341.638,66.576,320.748,66.576,320.748z"/>
<path fill="#3F3D56" d="M104.367,671.911c0,0,1.719-4.727,7.736-3.223s10.099-3.868,10.099-3.868s3.223-0.43,1.074,3.653
	s-3.868,6.876-3.868,6.876s12.893,29.439,4.513,36.53s-18.05,2.793-18.05,2.793s-9.455-6.661-9.025-24.282
	c0,0-0.43-5.587-5.587-14.612s-9.025-22.777-2.793-25.356s7.835-2.674,7.835-2.674s-2.916,13.337,4.616,17.998L104.367,671.911z"/>
<path fill="#3F3D56" d="M64.4,705.217c0,0-5.157-9.67,3.438-10.744s17.835-1.719,17.405,2.793s-1.504,11.389-1.504,11.389
	l1.504,4.942c0,0,0.43,12.248,1.934,13.752s9.67,14.397-7.736,14.397s-22.563-1.934-21.058-6.017s1.934-24.282,1.934-24.282
	L64.4,705.217z"/>
<path fill="#2F2E41" d="M77.722,272.661c0,0,12.033,3.223,18.265,4.513s5.587-2.364,5.587-2.364s8.165,1.074,7.736,0.215
	c-0.43-0.86,3.438-5.372-1.074-10.529s-3.223-9.025-3.223-9.025h-3.868l-1.074-1.504h-6.017c0,0-4.512-1.719-16.331,0
	s-27.935,2.149-29.224,9.24c-1.289,7.091-7.951,15.901-5.587,19.984c2.364,4.083,15.901,20.844,17.19,27.935
	c1.289,7.091,7.309,8.667,7.093,4.226s-6.233-19.912-1.076-20.557S80.086,281.042,77.722,272.661z"/>
<path fill="none" stroke="#3F3D56" stroke-miterlimit="10" d="M934.881,7.457c-8.694,0.491-16.364,5.854-19.81,13.851
	c-4.953,11.974,1.424,26.039,10.999,34.77s21.874,13.722,33.048,20.282c15.01,8.811,28.497,21.043,36.007,36.744
	s8.309,35.15-0.519,50.15c-8.194,13.922-23.093,22.255-37.302,29.94"/>
<ellipse fill="#6C63FF" cx="947.5" cy="8.5" rx="17.5" ry="8.5"/>
<ellipse fill="#6C63FF" cx="961.5" cy="64.5" rx="17.5" ry="8.5"/>
<ellipse fill="#6C63FF" cx="929.5" cy="73.5" rx="17.5" ry="8.5"/>
<ellipse fill="#6C63FF" cx="979.5" cy="120.5" rx="17.5" ry="8.5"/>
<linearGradient id="SVGID_2_" gradientUnits="userSpaceOnUse" x1="997" y1="120.5" x2="1032" y2="120.5">
	<stop  offset="0" style="stop-color:#8693F2"/>
	<stop  offset="1" style="stop-color:#3548CB"/>
</linearGradient>
<ellipse fill="url(#SVGID_2_)" cx="1014.5" cy="120.5" rx="17.5" ry="8.5"/>
</svg>
