<?xml version="1.0" encoding="utf-8"?>
<!-- Generator: Adobe Illustrator 17.0.0, SVG Export Plug-In . SVG Version: 6.00 Build 0)  -->
<!DOCTYPE svg PUBLIC "-//W3C//DTD SVG 1.1//EN" "http://www.w3.org/Graphics/SVG/1.1/DTD/svg11.dtd">
<svg version="1.1" id="e189b3b9-b88e-4ad6-86fc-a3cf637fca9f"
	 xmlns="http://www.w3.org/2000/svg" xmlns:xlink="http://www.w3.org/1999/xlink" x="0px" y="0px" width="1082.439px"
	 height="449.881px" viewBox="0 0 1082.439 449.881" enable-background="new 0 0 1082.439 449.881" xml:space="preserve">
<title>code_thinking</title>
<polygon fill="#FFB9B9" points="77.591,390.495 52.772,388.84 61.045,426.069 89.173,414.487 "/>
<polygon fill="#2F2E41" points="305.1,321.001 247.189,264.744 214.096,290.391 148.739,368.985 156.185,380.567 235.606,326.792 
	289.381,397.113 340.674,371.467 "/>
<polygon opacity="0.1" enable-background="new    " points="305.1,321.001 247.189,264.744 214.096,290.391 148.739,368.985 
	156.185,380.567 235.606,326.792 289.381,397.113 340.674,371.467 "/>
<path fill="#FFB9B9" d="M310.064,358.23l-7.446,5.791l-60.393-20.683l-14.064-5.791l-28.128,5.791c0,0,0-23.165,26.474-22.337
	l27.301,6.618l32.265,2.482L310.064,358.23z"/>
<polygon fill="#2F2E41" points="363.839,419.451 345.638,431.033 324.128,431.033 224.024,393.804 77.591,420.278 73.454,388.84 
	207.478,330.102 324.956,368.985 "/>
<path fill="#FFB9B9" d="M246.361,272.19l-12.41,2.482l-2.704-3.155c-4.377-5.107-5.268-12.339-2.26-18.355l0,0l34.747-45.502
	c0,0,9.928-22.337,25.646-13.237s-13.237,23.992-13.237,23.992l-17.373,27.301l1.655,14.064L246.361,272.19z"/>
<circle fill="#FFB9B9" cx="324.956" cy="186.15" r="32.265"/>
<path fill="#FFB9B9" d="M310.478,209.728l14.892,35.574l35.574-14.892c0,0-11.582-28.128-11.582-28.956
	S310.478,209.728,310.478,209.728z"/>
<path fill="#F27576" d="M408.439,314.97c0,19.472-3.069,38.823-9.092,57.341l-2.416,7.429l-11.582,52.948l-12.41,3.309l-9.1-11.582
	l-18.201-13.237l-13.237-21.51l-11.351-18.912l-3.541-5.907L305.1,302.8l-47.156-26.474l-15.719-2.482l3.309-9.1l14.064-19.028
	l14.064-1.655l4.137-3.309l3.309,1.655l13.237-7.446l4.137,1.655l24.19,2.25l14.693-3.078l21.129-11.342l8.654,1.415l29.783,24.819
	C404.545,271.259,408.441,293.028,408.439,314.97z"/>
<path fill="#4DDDBA" d="M60.39,403.305c0,0,7.41-12.559,4.28-14.025c-3.13-1.466-16.422-7.311-16.422-7.311l-19.492-6.46
	c0,0-28.126-41.801-28.743-5.45s20.479,45.089,20.479,45.089s18.816,40.493,29.474,34.036s21.323-28.376,21.323-28.376
	S52.07,410.476,60.39,403.305z"/>
<polygon opacity="0.1" enable-background="new    " points="399.413,307.764 367.975,328.447 321.051,370.755 317.51,364.848 
	307.582,315.21 310.064,315.21 335.711,268.054 "/>
<polygon fill="#F27576" points="335.711,263.09 310.064,310.246 300.964,310.246 295.173,326.792 281.936,330.102 317.51,368.985 
	367.975,323.483 399.413,302.8 "/>
<path fill="#2F2E41" d="M299.86,162.16l-3.496,1.345c-2.232-1.511-2.816-4.545-1.305-6.777c0.019-0.028,0.038-0.055,0.057-0.083
	l-6.46-0.302c16.177-21.545,46.756-25.896,68.3-9.72c1.585,1.19,3.096,2.476,4.525,3.85c0.294-1.013,3.5,0.958,4.809,2.956
	c0.44-1.648,3.446,6.32,4.509,11.952c0.492-1.875,2.385,1.152,0.727,4.057c1.051-0.154,1.525,2.535,0.712,4.032
	c1.149-0.54,0.956,2.669-0.291,4.813c1.64-0.146-12.935,22.476-18.837,35.696c-1.714-7.873-3.64-16.164-9.166-22.029
	c-0.939-0.997-1.968-1.905-2.995-2.811l-5.554-4.902c-6.458-5.7-12.332-12.736-20.935-14.866c-5.912-1.464-9.651-1.795-6.429-8.457
	c-2.911,1.215-5.629,3.021-8.566,4.15C299.507,164.133,299.917,163.091,299.86,162.16z"/>
<circle fill="#FFB9B9" cx="341.088" cy="189.873" r="5.791"/>
<rect x="178.439" y="59.71" fill="#7E549E" width="28" height="28"/>
<path fill="#4DDDBA" d="M223.439,71.71h-34v-34h34V71.71z M190.917,70.232h31.043V39.188h-31.043V70.232z"/>
<rect x="50.028" y="149.557" transform="matrix(-0.2746 -0.9616 0.9616 -0.2746 -75.6624 270.0332)" fill="#F27576" width="28" height="28"/>
<path fill="#4DDDBA" d="M74.463,192.817l-9.336-32.693l32.693-9.336l9.336,32.693L74.463,192.817z M66.955,161.139l8.524,29.85
	l29.85-8.524l-8.524-29.85L66.955,161.139z"/>
<rect x="59.706" y="13.989" transform="matrix(0.6828 -0.7306 0.7306 0.6828 2.9306 62.7283)" fill="#4DDDBA" width="28" height="28"/>
<path fill="#4DDDBA" d="M54.001,52.004l23.215-24.841l24.841,23.215L78.841,75.219L54.001,52.004z M77.286,29.252L56.09,51.933
	l22.681,21.196l21.196-22.681L77.286,29.252z"/>
<path fill="#3F3D56" d="M1026.232,5.362h-260.17V0H648.091v5.362H386.849c-9.719,0-17.599,7.879-17.599,17.598v0v356.252
	c0,9.719,7.879,17.599,17.599,17.599h639.383c9.719,0,17.599-7.879,17.599-17.599V22.961
	C1043.83,13.241,1035.951,5.362,1026.232,5.362L1026.232,5.362z"/>
<rect x="392.845" y="36.464" fill="#7E549E" width="627.391" height="353.913"/>
<circle fill="#7E549E" cx="706.004" cy="20.377" r="6.435"/>
<polygon opacity="0.1" enable-background="new    " points="840.813,390.377 392.845,390.377 392.845,36.464 "/>
<circle fill="#F2F2F2" cx="491.013" cy="303.587" r="60.307"/>
<path fill="#3F3D56" d="M504.438,348.913c-41.43,0-75.016-33.586-75.016-75.016s33.586-75.016,75.016-75.016
	s75.016,33.586,75.016,75.016C579.407,315.308,545.848,348.866,504.438,348.913z M504.438,199.862
	c-40.888,0-74.035,33.147-74.035,74.035c0,40.888,33.147,74.035,74.035,74.035c40.888,0,74.035-33.147,74.035-74.035
	C578.427,233.028,545.307,199.908,504.438,199.862L504.438,199.862z"/>
<rect x="852.392" y="227.332" fill="#3F3D56" width="58.605" height="12.246"/>
<rect x="781.541" y="131.989" fill="#3F3D56" width="200.307" height="5.248"/>
<rect x="781.541" y="148.608" fill="#3F3D56" width="200.307" height="5.248"/>
<rect x="781.541" y="165.228" fill="#3F3D56" width="200.307" height="5.248"/>
<rect x="781.541" y="181.847" fill="#3F3D56" width="200.307" height="5.248"/>
<rect x="781.541" y="198.467" fill="#3F3D56" width="200.307" height="5.248"/>
<rect x="957.356" y="43.644" fill="#F2F2F2" width="24.492" height="24.492"/>
<path fill="#3F3D56" d="M993.219,79.507h-29.74v-29.74h29.74V79.507z M964.772,78.214h27.154V51.06h-27.154L964.772,78.214z"/>
<path fill="#3F3D56" d="M1061.446,383.942h-61.229v-4.412c0-0.483-0.392-0.875-0.875-0.875h0h-20.993
	c-0.483,0-0.875,0.392-0.875,0.875v0v4.412h-13.12v-4.412c0-0.483-0.392-0.875-0.875-0.875l0,0h-20.993
	c-0.483,0-0.875,0.392-0.875,0.875l0,0v4.412h-13.121v-4.412c0-0.483-0.392-0.875-0.875-0.875l0,0h-20.993
	c-0.483,0-0.875,0.392-0.875,0.875l0,0v4.412h-13.121v-4.412c0-0.483-0.392-0.875-0.875-0.875l0,0H870.76
	c-0.483,0-0.875,0.392-0.875,0.875v0v4.412h-13.121v-4.412c0-0.483-0.392-0.875-0.875-0.875l0,0h-20.993
	c-0.483,0-0.875,0.392-0.875,0.875l0,0v4.412h-13.121v-4.412c0-0.483-0.392-0.875-0.875-0.875l0,0h-20.993
	c-0.483,0-0.875,0.392-0.875,0.875l0,0v4.412h-13.121v-4.412c0-0.483-0.392-0.875-0.875-0.875l0,0H619.72
	c-0.483,0-0.875,0.392-0.875,0.875l0,0v4.412h-13.121v-4.412c0-0.483-0.392-0.875-0.875-0.875l0,0h-20.993
	c-0.483,0-0.875,0.392-0.875,0.875l0,0v4.412h-13.121v-4.412c0-0.483-0.392-0.875-0.875-0.875h0h-20.993
	c-0.483,0-0.875,0.392-0.875,0.875l0,0v4.412h-13.121v-4.412c0-0.483-0.392-0.875-0.875-0.875l0,0h-20.993
	c-0.483,0-0.875,0.392-0.875,0.875l0,0v4.412h-13.121v-4.412c0-0.483-0.392-0.875-0.875-0.875l0,0h-20.993
	c-0.483,0-0.875,0.392-0.875,0.875l0,0v4.412h-13.121v-4.412c0-0.483-0.392-0.875-0.875-0.875l0,0h-20.993
	c-0.483,0-0.875,0.392-0.875,0.875v0v4.412h-13.121v-4.412c0-0.483-0.392-0.875-0.875-0.875h0h-20.993
	c-0.483,0-0.875,0.392-0.875,0.875l0,0v4.412h-40.236c-11.594,0-20.993,9.399-20.993,20.993v9.492
	c0,11.594,9.399,20.993,20.993,20.993h698.014c11.594,0,20.993-9.399,20.993-20.993v-9.492
	C1082.439,393.341,1073.04,383.942,1061.446,383.942z"/>
</svg>
