<?xml version="1.0" encoding="utf-8"?>
<!-- Generator: Adobe Illustrator 17.0.0, SVG Export Plug-In . SVG Version: 6.00 Build 0)  -->
<!DOCTYPE svg PUBLIC "-//W3C//DTD SVG 1.1//EN" "http://www.w3.org/Graphics/SVG/1.1/DTD/svg11.dtd">
<svg version="1.1" id="_x35_5370fff-d7e2-4a7c-8080-55f1e259b78c"
	 xmlns="http://www.w3.org/2000/svg" xmlns:xlink="http://www.w3.org/1999/xlink" x="0px" y="0px" width="1040.32px"
	 height="649.16px" viewBox="0 0 1040.32 649.16" enable-background="new 0 0 1040.32 649.16" xml:space="preserve">
<title>building_blocks</title>
<path fill="#8693F2" d="M169.16,408.16h85.32c4.882,0,8.84,3.958,8.84,8.84v23.32c0,4.882-3.958,8.84-8.84,8.84h-85.32
	c-4.882,0-8.84-3.958-8.84-8.84V417C160.32,412.118,164.278,408.16,169.16,408.16z"/>
<path fill="#6C63FF" d="M272.16,408.16h85.32c4.882,0,8.84,3.958,8.84,8.84v23.32c0,4.882-3.958,8.84-8.84,8.84h-85.32
	c-4.882,0-8.84-3.958-8.84-8.84V417C263.32,412.118,267.278,408.16,272.16,408.16z"/>
<path opacity="0.1" fill="#3548CB" enable-background="new    " d="M272.16,408.16h85.32c4.882,0,8.84,3.958,8.84,8.84v23.32
	c0,4.882-3.958,8.84-8.84,8.84h-85.32c-4.882,0-8.84-3.958-8.84-8.84V417C263.32,412.118,267.278,408.16,272.16,408.16z"/>
<path fill="#8693F2" d="M375.16,408.16h85.32c4.882,0,8.84,3.958,8.84,8.84v23.32c0,4.882-3.958,8.84-8.84,8.84h-85.32
	c-4.882,0-8.84-3.958-8.84-8.84V417C366.32,412.118,370.278,408.16,375.16,408.16z"/>
<path fill="#6C63FF" d="M478.16,408.16h85.32c4.882,0,8.84,3.958,8.84,8.84v23.32c0,4.882-3.958,8.84-8.84,8.84h-85.32
	c-4.882,0-8.84-3.958-8.84-8.84V417C469.32,412.118,473.278,408.16,478.16,408.16z"/>
<path opacity="0.1" fill="#3548CB" enable-background="new    " d="M478.16,408.16h85.32c4.882,0,8.84,3.958,8.84,8.84v23.32
	c0,4.882-3.958,8.84-8.84,8.84h-85.32c-4.882,0-8.84-3.958-8.84-8.84V417C469.32,412.118,473.278,408.16,478.16,408.16z"/>
<path fill="#8693F2" d="M581.16,408.16h85.32c4.882,0,8.84,3.958,8.84,8.84v23.32c0,4.882-3.958,8.84-8.84,8.84h-85.32
	c-4.882,0-8.84-3.958-8.84-8.84V417C572.32,412.118,576.278,408.16,581.16,408.16z"/>
<path fill="#6C63FF" d="M684.16,408.16h85.32c4.882,0,8.84,3.958,8.84,8.84v23.32c0,4.882-3.958,8.84-8.84,8.84h-85.32
	c-4.882,0-8.84-3.958-8.84-8.84V417C675.32,412.118,679.278,408.16,684.16,408.16z"/>
<path opacity="0.1" fill="#3548CB" enable-background="new    " d="M684.16,408.16h85.32c4.882,0,8.84,3.958,8.84,8.84v23.32
	c0,4.882-3.958,8.84-8.84,8.84h-85.32c-4.882,0-8.84-3.958-8.84-8.84V417C675.32,412.118,679.278,408.16,684.16,408.16z"/>
<path fill="#8693F2" d="M769.48,408.16h-85.32c-4.882,0-8.84-3.958-8.84-8.84V376c0-4.882,3.958-8.84,8.84-8.84h85.32
	c4.882,0,8.84,3.958,8.84,8.84v23.32C778.32,404.202,774.362,408.16,769.48,408.16z"/>
<path fill="#6C63FF" d="M666.48,408.16h-85.32c-4.882,0-8.84-3.958-8.84-8.84V376c0-4.882,3.958-8.84,8.84-8.84h85.32
	c4.882,0,8.84,3.958,8.84,8.84v23.32C675.32,404.202,671.362,408.16,666.48,408.16z"/>
<path opacity="0.1" fill="#3548CB" enable-background="new    " d="M666.48,408.16h-85.32c-4.882,0-8.84-3.958-8.84-8.84V376
	c0-4.882,3.958-8.84,8.84-8.84h85.32c4.882,0,8.84,3.958,8.84,8.84v23.32C675.32,404.202,671.362,408.16,666.48,408.16z"/>
<path fill="#8693F2" d="M563.48,408.16h-85.32c-4.882,0-8.84-3.958-8.84-8.84V376c0-4.882,3.958-8.84,8.84-8.84h85.32
	c4.882,0,8.84,3.958,8.84,8.84v23.32C572.32,404.202,568.362,408.16,563.48,408.16z"/>
<path fill="#6C63FF" d="M460.48,408.16h-85.32c-4.882,0-8.84-3.958-8.84-8.84V376c0-4.882,3.958-8.84,8.84-8.84h85.32
	c4.882,0,8.84,3.958,8.84,8.84v23.32C469.32,404.202,465.362,408.16,460.48,408.16z"/>
<path opacity="0.1" fill="#3548CB" enable-background="new    " d="M460.48,408.16h-85.32c-4.882,0-8.84-3.958-8.84-8.84V376
	c0-4.882,3.958-8.84,8.84-8.84h85.32c4.882,0,8.84,3.958,8.84,8.84v23.32C469.32,404.202,465.362,408.16,460.48,408.16z"/>
<path fill="#8693F2" d="M357.48,408.16h-85.32c-4.882,0-8.84-3.958-8.84-8.84V376c0-4.882,3.958-8.84,8.84-8.84h85.32
	c4.882,0,8.84,3.958,8.84,8.84v23.32C366.32,404.202,362.362,408.16,357.48,408.16z"/>
<path fill="#6C63FF" d="M254.48,408.16h-85.32c-4.882,0-8.84-3.958-8.84-8.84V376c0-4.882,3.958-8.84,8.84-8.84h85.32
	c4.882,0,8.84,3.958,8.84,8.84v23.32C263.32,404.202,259.362,408.16,254.48,408.16z"/>
<path opacity="0.1" fill="#3548CB" enable-background="new    " d="M254.48,408.16h-85.32c-4.882,0-8.84-3.958-8.84-8.84V376
	c0-4.882,3.958-8.84,8.84-8.84h85.32c4.882,0,8.84,3.958,8.84,8.84v23.32C263.32,404.202,259.362,408.16,254.48,408.16z"/>
<path fill="#8693F2" d="M169.16,326.16h85.32c4.882,0,8.84,3.958,8.84,8.84v23.32c0,4.882-3.958,8.84-8.84,8.84h-85.32
	c-4.882,0-8.84-3.958-8.84-8.84V335C160.32,330.118,164.278,326.16,169.16,326.16z"/>
<path fill="#6C63FF" d="M272.16,326.16h85.32c4.882,0,8.84,3.958,8.84,8.84v23.32c0,4.882-3.958,8.84-8.84,8.84h-85.32
	c-4.882,0-8.84-3.958-8.84-8.84V335C263.32,330.118,267.278,326.16,272.16,326.16z"/>
<path opacity="0.1" fill="#3548CB" enable-background="new    " d="M272.16,326.16h85.32c4.882,0,8.84,3.958,8.84,8.84v23.32
	c0,4.882-3.958,8.84-8.84,8.84h-85.32c-4.882,0-8.84-3.958-8.84-8.84V335C263.32,330.118,267.278,326.16,272.16,326.16z"/>
<path fill="#8693F2" d="M375.16,326.16h85.32c4.882,0,8.84,3.958,8.84,8.84v23.32c0,4.882-3.958,8.84-8.84,8.84h-85.32
	c-4.882,0-8.84-3.958-8.84-8.84V335C366.32,330.118,370.278,326.16,375.16,326.16z"/>
<path fill="#6C63FF" d="M478.16,326.16h85.32c4.882,0,8.84,3.958,8.84,8.84v23.32c0,4.882-3.958,8.84-8.84,8.84h-85.32
	c-4.882,0-8.84-3.958-8.84-8.84V335C469.32,330.118,473.278,326.16,478.16,326.16z"/>
<path opacity="0.1" fill="#3548CB" enable-background="new    " d="M478.16,326.16h85.32c4.882,0,8.84,3.958,8.84,8.84v23.32
	c0,4.882-3.958,8.84-8.84,8.84h-85.32c-4.882,0-8.84-3.958-8.84-8.84V335C469.32,330.118,473.278,326.16,478.16,326.16z"/>
<path fill="#8693F2" d="M581.16,326.16h85.32c4.882,0,8.84,3.958,8.84,8.84v23.32c0,4.882-3.958,8.84-8.84,8.84h-85.32
	c-4.882,0-8.84-3.958-8.84-8.84V335C572.32,330.118,576.278,326.16,581.16,326.16z"/>
<path fill="#6C63FF" d="M684.16,326.16h85.32c4.882,0,8.84,3.958,8.84,8.84v23.32c0,4.882-3.958,8.84-8.84,8.84h-85.32
	c-4.882,0-8.84-3.958-8.84-8.84V335C675.32,330.118,679.278,326.16,684.16,326.16z"/>
<path opacity="0.1" fill="#3548CB" enable-background="new    " d="M684.16,326.16h85.32c4.882,0,8.84,3.958,8.84,8.84v23.32
	c0,4.882-3.958,8.84-8.84,8.84h-85.32c-4.882,0-8.84-3.958-8.84-8.84V335C675.32,330.118,679.278,326.16,684.16,326.16z"/>
<path fill="#8693F2" d="M769.48,326.16h-85.32c-4.882,0-8.84-3.958-8.84-8.84V294c0-4.882,3.958-8.84,8.84-8.84h85.32
	c4.882,0,8.84,3.958,8.84,8.84v23.32C778.32,322.202,774.362,326.16,769.48,326.16z"/>
<path fill="#6C63FF" d="M666.48,326.16h-85.32c-4.882,0-8.84-3.958-8.84-8.84V294c0-4.882,3.958-8.84,8.84-8.84h85.32
	c4.882,0,8.84,3.958,8.84,8.84v23.32C675.32,322.202,671.362,326.16,666.48,326.16z"/>
<path opacity="0.1" fill="#3548CB" enable-background="new    " d="M666.48,326.16h-85.32c-4.882,0-8.84-3.958-8.84-8.84V294
	c0-4.882,3.958-8.84,8.84-8.84h85.32c4.882,0,8.84,3.958,8.84,8.84v23.32C675.32,322.202,671.362,326.16,666.48,326.16z"/>
<path fill="#8693F2" d="M563.48,326.16h-85.32c-4.882,0-8.84-3.958-8.84-8.84V294c0-4.882,3.958-8.84,8.84-8.84h85.32
	c4.882,0,8.84,3.958,8.84,8.84v23.32C572.32,322.202,568.362,326.16,563.48,326.16z"/>
<path fill="#6C63FF" d="M460.48,326.16h-85.32c-4.882,0-8.84-3.958-8.84-8.84V294c0-4.882,3.958-8.84,8.84-8.84h85.32
	c4.882,0,8.84,3.958,8.84,8.84v23.32C469.32,322.202,465.362,326.16,460.48,326.16z"/>
<path opacity="0.1" fill="#3548CB" enable-background="new    " d="M460.48,326.16h-85.32c-4.882,0-8.84-3.958-8.84-8.84V294
	c0-4.882,3.958-8.84,8.84-8.84h85.32c4.882,0,8.84,3.958,8.84,8.84v23.32C469.32,322.202,465.362,326.16,460.48,326.16z"/>
<path fill="#8693F2" d="M357.48,326.16h-85.32c-4.882,0-8.84-3.958-8.84-8.84V294c0-4.882,3.958-8.84,8.84-8.84h85.32
	c4.882,0,8.84,3.958,8.84,8.84v23.32C366.32,322.202,362.362,326.16,357.48,326.16z"/>
<path fill="#6C63FF" d="M254.48,326.16h-85.32c-4.882,0-8.84-3.958-8.84-8.84V294c0-4.882,3.958-8.84,8.84-8.84h85.32
	c4.882,0,8.84,3.958,8.84,8.84v23.32C263.32,322.202,259.362,326.16,254.48,326.16z"/>
<path opacity="0.1" fill="#3548CB" enable-background="new    " d="M254.48,326.16h-85.32c-4.882,0-8.84-3.958-8.84-8.84V294
	c0-4.882,3.958-8.84,8.84-8.84h85.32c4.882,0,8.84,3.958,8.84,8.84v23.32C263.32,322.202,259.362,326.16,254.48,326.16z"/>
<path fill="#8693F2" d="M169.16,246.16h85.32c4.882,0,8.84,3.958,8.84,8.84v23.32c0,4.882-3.958,8.84-8.84,8.84h-85.32
	c-4.882,0-8.84-3.958-8.84-8.84V255C160.32,250.118,164.278,246.16,169.16,246.16z"/>
<path fill="#6C63FF" d="M272.16,246.16h85.32c4.882,0,8.84,3.958,8.84,8.84v23.32c0,4.882-3.958,8.84-8.84,8.84h-85.32
	c-4.882,0-8.84-3.958-8.84-8.84V255C263.32,250.118,267.278,246.16,272.16,246.16z"/>
<path opacity="0.1" fill="#3548CB" enable-background="new    " d="M272.16,246.16h85.32c4.882,0,8.84,3.958,8.84,8.84v23.32
	c0,4.882-3.958,8.84-8.84,8.84h-85.32c-4.882,0-8.84-3.958-8.84-8.84V255C263.32,250.118,267.278,246.16,272.16,246.16z"/>
<path fill="#8693F2" d="M375.16,246.16h85.32c4.882,0,8.84,3.958,8.84,8.84v23.32c0,4.882-3.958,8.84-8.84,8.84h-85.32
	c-4.882,0-8.84-3.958-8.84-8.84V255C366.32,250.118,370.278,246.16,375.16,246.16z"/>
<path fill="#6C63FF" d="M478.16,246.16h85.32c4.882,0,8.84,3.958,8.84,8.84v23.32c0,4.882-3.958,8.84-8.84,8.84h-85.32
	c-4.882,0-8.84-3.958-8.84-8.84V255C469.32,250.118,473.278,246.16,478.16,246.16z"/>
<path opacity="0.1" fill="#3548CB" enable-background="new    " d="M478.16,246.16h85.32c4.882,0,8.84,3.958,8.84,8.84v23.32
	c0,4.882-3.958,8.84-8.84,8.84h-85.32c-4.882,0-8.84-3.958-8.84-8.84V255C469.32,250.118,473.278,246.16,478.16,246.16z"/>
<path fill="#8693F2" d="M581.16,246.16h85.32c4.882,0,8.84,3.958,8.84,8.84v23.32c0,4.882-3.958,8.84-8.84,8.84h-85.32
	c-4.882,0-8.84-3.958-8.84-8.84V255C572.32,250.118,576.278,246.16,581.16,246.16z"/>
<path fill="#6C63FF" d="M684.16,246.16h85.32c4.882,0,8.84,3.958,8.84,8.84v23.32c0,4.882-3.958,8.84-8.84,8.84h-85.32
	c-4.882,0-8.84-3.958-8.84-8.84V255C675.32,250.118,679.278,246.16,684.16,246.16z"/>
<path opacity="0.1" fill="#3548CB" enable-background="new    " d="M684.16,246.16h85.32c4.882,0,8.84,3.958,8.84,8.84v23.32
	c0,4.882-3.958,8.84-8.84,8.84h-85.32c-4.882,0-8.84-3.958-8.84-8.84V255C675.32,250.118,679.278,246.16,684.16,246.16z"/>
<path fill="#8693F2" d="M769.48,246.16h-85.32c-4.882,0-8.84-3.958-8.84-8.84V214c0-4.882,3.958-8.84,8.84-8.84h85.32
	c4.882,0,8.84,3.958,8.84,8.84v23.32C778.32,242.202,774.362,246.16,769.48,246.16z"/>
<path fill="#6C63FF" d="M666.48,246.16h-85.32c-4.882,0-8.84-3.958-8.84-8.84V214c0-4.882,3.958-8.84,8.84-8.84h85.32
	c4.882,0,8.84,3.958,8.84,8.84v23.32C675.32,242.202,671.362,246.16,666.48,246.16z"/>
<path opacity="0.1" fill="#3548CB" enable-background="new    " d="M666.48,246.16h-85.32c-4.882,0-8.84-3.958-8.84-8.84V214
	c0-4.882,3.958-8.84,8.84-8.84h85.32c4.882,0,8.84,3.958,8.84,8.84v23.32C675.32,242.202,671.362,246.16,666.48,246.16z"/>
<path fill="#8693F2" d="M563.48,246.16h-85.32c-4.882,0-8.84-3.958-8.84-8.84V214c0-4.882,3.958-8.84,8.84-8.84h85.32
	c4.882,0,8.84,3.958,8.84,8.84v23.32C572.32,242.202,568.362,246.16,563.48,246.16z"/>
<path fill="#6C63FF" d="M460.48,246.16h-85.32c-4.882,0-8.84-3.958-8.84-8.84V214c0-4.882,3.958-8.84,8.84-8.84h85.32
	c4.882,0,8.84,3.958,8.84,8.84v23.32C469.32,242.202,465.362,246.16,460.48,246.16z"/>
<path opacity="0.1" fill="#3548CB" enable-background="new    " d="M460.48,246.16h-85.32c-4.882,0-8.84-3.958-8.84-8.84V214
	c0-4.882,3.958-8.84,8.84-8.84h85.32c4.882,0,8.84,3.958,8.84,8.84v23.32C469.32,242.202,465.362,246.16,460.48,246.16z"/>
<path fill="#8693F2" d="M357.48,246.16h-85.32c-4.882,0-8.84-3.958-8.84-8.84V214c0-4.882,3.958-8.84,8.84-8.84h85.32
	c4.882,0,8.84,3.958,8.84,8.84v23.32C366.32,242.202,362.362,246.16,357.48,246.16z"/>
<path fill="#6C63FF" d="M254.48,246.16h-85.32c-4.882,0-8.84-3.958-8.84-8.84V214c0-4.882,3.958-8.84,8.84-8.84h85.32
	c4.882,0,8.84,3.958,8.84,8.84v23.32C263.32,242.202,259.362,246.16,254.48,246.16z"/>
<path opacity="0.1" fill="#3548CB" enable-background="new    " d="M254.48,246.16h-85.32c-4.882,0-8.84-3.958-8.84-8.84V214
	c0-4.882,3.958-8.84,8.84-8.84h85.32c4.882,0,8.84,3.958,8.84,8.84v23.32C263.32,242.202,259.362,246.16,254.48,246.16z"/>
<path fill="#8693F2" d="M169.16,164.16h85.32c4.882,0,8.84,3.958,8.84,8.84v23.32c0,4.882-3.958,8.84-8.84,8.84h-85.32
	c-4.882,0-8.84-3.958-8.84-8.84V173C160.32,168.118,164.278,164.16,169.16,164.16z"/>
<path fill="#6C63FF" d="M272.16,164.16h85.32c4.882,0,8.84,3.958,8.84,8.84v23.32c0,4.882-3.958,8.84-8.84,8.84h-85.32
	c-4.882,0-8.84-3.958-8.84-8.84V173C263.32,168.118,267.278,164.16,272.16,164.16z"/>
<path opacity="0.1" fill="#3548CB" enable-background="new    " d="M272.16,164.16h85.32c4.882,0,8.84,3.958,8.84,8.84v23.32
	c0,4.882-3.958,8.84-8.84,8.84h-85.32c-4.882,0-8.84-3.958-8.84-8.84V173C263.32,168.118,267.278,164.16,272.16,164.16z"/>
<path fill="#8693F2" d="M375.16,164.16h85.32c4.882,0,8.84,3.958,8.84,8.84v23.32c0,4.882-3.958,8.84-8.84,8.84h-85.32
	c-4.882,0-8.84-3.958-8.84-8.84V173C366.32,168.118,370.278,164.16,375.16,164.16z"/>
<path fill="#6C63FF" d="M478.16,164.16h85.32c4.882,0,8.84,3.958,8.84,8.84v23.32c0,4.882-3.958,8.84-8.84,8.84h-85.32
	c-4.882,0-8.84-3.958-8.84-8.84V173C469.32,168.118,473.278,164.16,478.16,164.16z"/>
<path opacity="0.1" fill="#3548CB" enable-background="new    " d="M478.16,164.16h85.32c4.882,0,8.84,3.958,8.84,8.84v23.32
	c0,4.882-3.958,8.84-8.84,8.84h-85.32c-4.882,0-8.84-3.958-8.84-8.84V173C469.32,168.118,473.278,164.16,478.16,164.16z"/>
<path fill="#8693F2" d="M581.16,164.16h85.32c4.882,0,8.84,3.958,8.84,8.84v23.32c0,4.882-3.958,8.84-8.84,8.84h-85.32
	c-4.882,0-8.84-3.958-8.84-8.84V173C572.32,168.118,576.278,164.16,581.16,164.16z"/>
<path fill="#6C63FF" d="M684.16,164.16h85.32c4.882,0,8.84,3.958,8.84,8.84v23.32c0,4.882-3.958,8.84-8.84,8.84h-85.32
	c-4.882,0-8.84-3.958-8.84-8.84V173C675.32,168.118,679.278,164.16,684.16,164.16z"/>
<path opacity="0.1" fill="#3548CB" enable-background="new    " d="M684.16,164.16h85.32c4.882,0,8.84,3.958,8.84,8.84v23.32
	c0,4.882-3.958,8.84-8.84,8.84h-85.32c-4.882,0-8.84-3.958-8.84-8.84V173C675.32,168.118,679.278,164.16,684.16,164.16z"/>
<linearGradient id="SVGID_1_" gradientUnits="userSpaceOnUse" x1="714.48" y1="553.45" x2="714.48" y2="597.6301" gradientTransform="matrix(1 0 0 -1 8.34 625.2001)">
	<stop  offset="0" style="stop-color:#808080;stop-opacity:0.25"/>
	<stop  offset="0.54" style="stop-color:#808080;stop-opacity:0.12"/>
	<stop  offset="1" style="stop-color:#808080;stop-opacity:0.1"/>
</linearGradient>
<path fill="url(#SVGID_1_)" d="M676.16,27.57h93.32c4.882,0,8.84,3.958,8.84,8.84v26.5c0,4.882-3.958,8.84-8.84,8.84h-93.32
	c-4.882,0-8.84-3.958-8.84-8.84v-26.5C667.32,31.528,671.278,27.57,676.16,27.57z"/>
<path fill="#8693F2" d="M765.48,70.16h-85.32c-4.882,0-8.84-3.958-8.84-8.84V38c0-4.882,3.958-8.84,8.84-8.84h85.32
	c4.882,0,8.84,3.958,8.84,8.84v23.32C774.32,66.202,770.362,70.16,765.48,70.16z"/>
<path fill="#6C63FF" d="M666.48,164.16h-85.32c-4.882,0-8.84-3.958-8.84-8.84V132c0-4.882,3.958-8.84,8.84-8.84h85.32
	c4.882,0,8.84,3.958,8.84,8.84v23.32C675.32,160.202,671.362,164.16,666.48,164.16z"/>
<path opacity="0.1" fill="#3548CB" enable-background="new    " d="M666.48,164.16h-85.32c-4.882,0-8.84-3.958-8.84-8.84V132
	c0-4.882,3.958-8.84,8.84-8.84h85.32c4.882,0,8.84,3.958,8.84,8.84v23.32C675.32,160.202,671.362,164.16,666.48,164.16z"/>
<path fill="#8693F2" d="M563.48,164.16h-85.32c-4.882,0-8.84-3.958-8.84-8.84V132c0-4.882,3.958-8.84,8.84-8.84h85.32
	c4.882,0,8.84,3.958,8.84,8.84v23.32C572.32,160.202,568.362,164.16,563.48,164.16z"/>
<path fill="#6C63FF" d="M460.48,164.16h-85.32c-4.882,0-8.84-3.958-8.84-8.84V132c0-4.882,3.958-8.84,8.84-8.84h85.32
	c4.882,0,8.84,3.958,8.84,8.84v23.32C469.32,160.202,465.362,164.16,460.48,164.16z"/>
<path opacity="0.1" fill="#3548CB" enable-background="new    " d="M460.48,164.16h-85.32c-4.882,0-8.84-3.958-8.84-8.84V132
	c0-4.882,3.958-8.84,8.84-8.84h85.32c4.882,0,8.84,3.958,8.84,8.84v23.32C469.32,160.202,465.362,164.16,460.48,164.16z"/>
<path fill="#8693F2" d="M357.48,164.16h-85.32c-4.882,0-8.84-3.958-8.84-8.84V132c0-4.882,3.958-8.84,8.84-8.84h85.32
	c4.882,0,8.84,3.958,8.84,8.84v23.32C366.32,160.202,362.362,164.16,357.48,164.16z"/>
<path fill="#6C63FF" d="M254.48,164.16h-85.32c-4.882,0-8.84-3.958-8.84-8.84V132c0-4.882,3.958-8.84,8.84-8.84h85.32
	c4.882,0,8.84,3.958,8.84,8.84v23.32C263.32,160.202,259.362,164.16,254.48,164.16z"/>
<path opacity="0.1" fill="#3548CB" enable-background="new    " d="M254.48,164.16h-85.32c-4.882,0-8.84-3.958-8.84-8.84V132
	c0-4.882,3.958-8.84,8.84-8.84h85.32c4.882,0,8.84,3.958,8.84,8.84v23.32C263.32,160.202,259.362,164.16,254.48,164.16z"/>
<ellipse fill="#F5F5F5" cx="499" cy="535.66" rx="499" ry="113.5"/>
<path fill="none" stroke="#535461" stroke-width="2" stroke-miterlimit="10" d="M113.95,484.72c0,0,9-30.41-1.68-52.8
	c-4.527-9.36-5.892-19.937-3.89-30.14c0.988-4.837,2.417-9.574,4.27-14.15"/>
<path fill="#4DDDBA" d="M106.03,373.49c0,3.73,6.75,14.54,6.75,14.54s6.75-10.81,6.75-14.54c0-3.728-3.022-6.75-6.75-6.75
	S106.03,369.762,106.03,373.49z"/>
<path fill="#4DDDBA" d="M94.87,394.14c2,3.13,13.57,8.53,13.57,8.53s-0.21-12.74-2.24-15.87c-2.043-3.118-6.228-3.989-9.346-1.946
	C93.76,386.882,92.875,391.024,94.87,394.14L94.87,394.14z"/>
<path fill="#4DDDBA" d="M95.36,429.42c3.33,1.68,16,0.52,16,0.52s-6.61-10.89-9.94-12.57c-3.363-1.609-7.393-0.186-9.002,3.177
	c-1.561,3.263-0.272,7.176,2.922,8.873H95.36z"/>
<path fill="#4DDDBA" d="M101.74,456.03c3,2.22,15.7,3.22,15.7,3.22s-4.68-11.85-7.67-14.07c-3.115-2.048-7.301-1.182-9.348,1.933
	c-1.893,2.88-1.312,6.725,1.348,8.917L101.74,456.03z"/>
<path fill="#4DDDBA" d="M122.61,403.39c-2.67,2.6-15.13,5.29-15.13,5.29s3.05-12.37,5.72-15c2.673-2.599,6.947-2.538,9.545,0.135
	c2.598,2.673,2.538,6.946-0.135,9.545V403.39z"/>
<path fill="#4DDDBA" d="M129.68,434.58c-3.33,1.68-16,0.52-16,0.52s6.61-10.89,9.94-12.57c3.398-1.533,7.396-0.021,8.929,3.377
	C133.991,429.104,132.744,432.873,129.68,434.58z"/>
<path fill="#4DDDBA" d="M132.38,465.9c-3,2.22-15.7,3.22-15.7,3.22s4.68-11.85,7.67-14.07c3.115-2.048,7.301-1.182,9.348,1.933
	c1.893,2.88,1.312,6.725-1.348,8.917L132.38,465.9z"/>
<path fill="#02CC9C" d="M596.98,312.38c0,0,32.89,32.89,14.32,81.69c-18.57,48.8,31.83,130,31.83,130s-0.54-0.08-1.54-0.26
	c-67.55-11.97-101.11-89.23-63.55-146.61C592,355.86,603.47,330.84,596.98,312.38z"/>
<path fill="none" stroke="#535461" stroke-miterlimit="10" d="M596.98,312.38c0,0,18.57,40.31,0,73.2
	c-18.57,32.89-3.18,125.18,46.18,138.44"/>
<path fill="#4DDDBA" d="M538.41,445.39c0,0,37.53-6,40.95,27.66c3.42,33.66,72.16,38.29,72.16,38.29l-1.29,0.86
	c-56.76,37.26-111,23.73-102.84-25.74C550.43,468.07,550.16,449.58,538.41,445.39z"/>
<path opacity="0.2" fill="#4DDDBA" enable-background="new    " d="M510.71,477.861c0,0,37.53-6,40.95,27.66
	s72.16,38.29,72.16,38.29l-1.29,0.86c-55.773,36.612-111.987,29.711-102.84-25.74C522.73,500.541,522.46,482.051,510.71,477.861z"/>
<path fill="none" stroke="#535461" stroke-miterlimit="10" d="M538.41,445.39c0,0,29.13,6.39,26.74,32.88
	c-1.797,19.916,32,64.814,86.37,33.07"/>
<path fill="#A8A8A8" d="M823.93,522.81c0,0-55.7-11.14-70.56-26s-81.7-40.85-89.13-22.28c-7.43,18.57-100.26,81.71-37.08,92.85
	c63.18,11.14,148.54,14.85,167.11,7.43C812.84,567.39,823.93,522.81,823.93,522.81z"/>
<path opacity="0.2" enable-background="new    " d="M627.16,560.48c63.13,11.14,148.54,14.85,167.11,7.43
	c14.14-5.66,24-32.83,27.85-45.48l1.86,0.39c0,0-11.14,44.56-29.71,52c-18.57,7.44-104,3.71-167.11-7.43
	c-18.22-3.22-23.43-10.77-21.47-20.33C607.16,553.29,613.55,558.08,627.16,560.48z"/>
<linearGradient id="SVGID_2_" gradientUnits="userSpaceOnUse" x1="877.2831" y1="-103.1299" x2="877.2831" y2="499.7937" gradientTransform="matrix(1 0 0 -1 -71.5 499.7801)">
	<stop  offset="0" style="stop-color:#808080;stop-opacity:0.25"/>
	<stop  offset="0.54" style="stop-color:#808080;stop-opacity:0.12"/>
	<stop  offset="1" style="stop-color:#808080;stop-opacity:0.1"/>
</linearGradient>
<path fill="url(#SVGID_2_)" d="M936.63,28.17c-0.993-2.474-2.576-4.667-4.61-6.39c-14.95-13.62-39.12-9.49-57.68-17.82
	c-4.28-1.92-8.66-4.58-13.3-3.85c-6.48,1-12.51,8.4-18.16,5.12l0.4,1.23l-0.4-0.21l4.16,12.66c1.6,4.86,3.28,9.86,6.38,13.91
	c-15.16,13.219-16.733,36.226-3.514,51.386c3.407,3.907,7.608,7.041,12.324,9.194c0.2,0.42,0.39,0.85,0.58,1.28l0.53,0.22
	c1.231,2.832,2.15,5.789,2.74,8.82c-4.81,0.67-13.2,6-21.44,13.84l-16.48-0.55c-10.659-0.356-20.974-3.864-29.64-10.08l-49.36-35.45
	c-3.516,0.346-6.828,1.811-9.45,4.18c-6.12-6.38-11.32-13-10.88-17c0,0-22.94-42.93-31.28-21.47c-8.34,21.46,15.64,44,15.64,44
	l15.21,19.71c-0.601,3.456-0.981,6.946-1.14,10.45c18.77,21.47,84.45,40.89,84.45,40.89l10.24,0.5l0.06,0.5
	c-0.63,2.687-0.939,5.44-0.92,8.2c0,0.4,0,0.81,0,1.23s0,0.55,0,0.82c0.52,34.24,5.21,139,5.21,139c0.91-0.41,1.86-0.78,2.82-1.13
	l-0.73,9.31c0,0-43.79,6.13-76.11,18.4c-32.32,12.27-33.36,26.58-33.36,26.58v126.26c-9.23,4.74-23.8,11-31.28,7.63
	c-8.12-3.62-12.57-0.58-13.38,2.59l0,0c-0.154,0.627-0.154,1.283,0,1.91l0,0c0.069,0.282,0.173,0.554,0.31,0.81v0.06
	c0.149,0.264,0.334,0.507,0.55,0.72c3.13,3.07,70.9,29.64,86.54,25.55c0.484-0.127,0.958-0.287,1.42-0.48
	c0.15-0.06,0.28-0.14,0.43-0.21c0.15-0.07,0.58-0.27,0.85-0.43c0.27-0.16,0.31-0.21,0.46-0.31s0.47-0.31,0.69-0.48
	c0.22-0.17,0.29-0.26,0.43-0.39s0.41-0.35,0.59-0.55s0.26-0.3,0.39-0.45s0.36-0.4,0.52-0.62s0.22-0.33,0.34-0.49
	c0.12-0.16,0.32-0.46,0.46-0.7s0.19-0.34,0.28-0.52c0.09-0.18,0.28-0.51,0.41-0.78c0.13-0.27,0.16-0.35,0.23-0.53
	c0.07-0.18,0.25-0.57,0.36-0.86s0.12-0.35,0.19-0.53c0.07-0.18,0.22-0.63,0.31-1c0-0.17,0.09-0.34,0.14-0.51
	c0.09-0.35,0.19-0.69,0.27-1c0-0.16,0.07-0.32,0.1-0.48c0.08-0.38,0.16-0.76,0.22-1.14c0-0.14,0-0.29,0.07-0.43
	c0.07-0.41,0.13-0.83,0.18-1.24v-0.36c0.05-0.45,0.1-0.9,0.14-1.35v-0.28c0.04-0.487,0.07-0.973,0.09-1.46v-0.2
	c0-0.52,0-1.04,0-1.56v-0.1c-0.019-6.097-0.689-12.175-2-18.13l0,0l3.93-107.53c20.479,0.318,40.96-0.436,61.36-2.26l2.24,51.32
	c0,0,0,33.73,11.47,49.06c9.82,13.12,21.16,71.15,24.22,87.62c-4.21,8-12.27,18-26.31,17.66c0,0-26.41-2.28-24.92,5l0,0
	c0.042,0.191,0.099,0.378,0.17,0.56l0,0c0.083,0.209,0.18,0.413,0.29,0.61l0,0c0.11,0.19,0.23,0.38,0.37,0.58l0.08,0.12
	c0.15,0.21,0.32,0.43,0.51,0.66v0.05c0.18,0.21,0.37,0.42,0.58,0.63l0.18,0.18c0.24,0.24,0.48,0.48,0.76,0.73
	c13.55,12.27,92.79,14.31,92.79,14.31v-0.28c0-0.08,0-0.18,0-0.29l0,0c0-3.55-0.52-22.17-5.26-36.19h1.1
	c0,0-11.47-103.24-20.85-115.5c0,0-2.49-54.44,3.13-88.55l1-0.38c26.28-9.82,28.15-34,25.44-51.76c5,1.6,7.92,2.69,7.92,2.69
	s-0.09-0.77-0.26-2.14l0.26,0.1c0,0-0.5-3.25-1.33-8.31c-1.88-13.93-5.52-38.27-9.4-49.76c-0.63-2.53-1.23-4.69-1.78-6.32
	c-2.239-6.905-3.777-14.017-4.59-21.23c-1.063-9.349-1.6-18.751-1.61-28.16c0.085-12.572,1.048-25.122,2.88-37.56
	c1.59-10.86,3-23.22,2.9-31.85c0.11-3.014-0.101-6.031-0.63-9c-1.39-6.37-7.54-10.51-13.93-13.15c-0.41-0.17-0.83-0.31-1.25-0.47
	c0.16-2.41,0.36-5.15,0.62-8c1.547,1.072,3.467,1.463,5.31,1.08c2.75-0.6,4.72-2.89,6.47-5c9.24-11.35,18.73-23.18,22.28-37.28
	c1.434-6.297,2.105-12.743,2-19.2c0-0.353,0-0.707,0-1.06C937.541,32.925,937.29,30.499,936.63,28.17z"/>
<path fill="#F7C4A7" d="M852.5,83.5c0,0,14,21,11,31s33,4,33,4s1-39,8-48S852.5,83.5,852.5,83.5z"/>
<path fill="#F7C4A7" d="M760,97c0,0-29-24-28-33c0,0-22-42-30-21s15,43,15,43l28,37L760,97z"/>
<path fill="#535461" d="M730.5,473.5c0,0-27,17-38,12s-15,3-12,6s68,29,83,25s7.37-36.76,7.37-36.76L730.5,473.5z"/>
<path fill="#535461" d="M873.5,546.5c0,0-6.5,27.5-29,27c0,0-34-3-21,9s89,14,89,14s0-41-14-50S873.5,546.5,873.5,546.5z"/>
<path fill="#FBC949" d="M832.5,352.5l3,70c0,0,0,33,11,48s24,90,24,90h38c0,0-11-101-20-113c0,0-4-89,10-109L832.5,352.5z"/>
<path fill="#FBC949" d="M911.5,289.5c0,0,23,55-19,71s-118,14-118,14l-4,116c0,0-47,6-48-9v-127c0,0,1-14,32-26s73-18,73-18l2-26
	L911.5,289.5z"/>
<path opacity="0.1" enable-background="new    " d="M874.65,108.31c7.988-0.884,16.07,0.257,23.5,3.32
	c6.13,2.58,12,6.63,13.36,12.86c1.58,7.38-0.17,23.93-2.18,37.94c-3.22,21.955-3.63,44.231-1.22,66.29c1,9.19,2.45,17.2,4.4,20.77
	c6,11,12,63,12,63s-66-25-99-10c0,0-4.5-102.5-5-136c-0.39-25.94,32.5-55.5,43.5-56.5C870.45,109.41,868.24,108.98,874.65,108.31z"
	/>
<path fill="#FF9597" d="M874.65,106.31c7.988-0.884,16.07,0.257,23.5,3.32c6.13,2.58,12,6.63,13.36,12.86
	c1.58,7.38-0.17,23.93-2.18,37.94c-3.22,21.955-3.63,44.231-1.22,66.29c0.778,7.052,2.252,14.009,4.4,20.77c4.5,13.5,12,63,12,63
	s-66-25-99-10c0,0-4.5-102.5-5-136c-0.39-25.94,32.5-55.5,43.5-56.5C870.45,107.41,868.24,106.98,874.65,106.31z"/>
<path opacity="0.1" enable-background="new    " d="M892.5,161.5l-71-4c0,0-4.52-34.81,5.73-34.45l70.27,2.45
	C897.5,125.5,912.5,143.5,892.5,161.5z"/>
<path fill="#FF9597" d="M892.5,159.5l-81-4c0,0-63-19-81-40c0,0,1-37,21-39l47.31,34.69c8.269,6.065,18.172,9.501,28.42,9.86
	l70.27,2.45C897.5,123.5,912.5,141.5,892.5,159.5z"/>
<path opacity="0.1" enable-background="new    " d="M896,88c1.19-9.48,5.49-12.63,8.5-16.5c7-9-52,13-52,13
	c3.05,4.685,5.725,9.604,8,14.71c4.704,2.167,9.821,3.29,15,3.29C884.16,102.5,889.78,93.13,896,88z"/>
<circle fill="#F7C4A7" cx="875.5" cy="65.5" r="36"/>
<path opacity="0.1" enable-background="new    " d="M852.77,40.27c-3.83-4.19-5.68-9.77-7.42-15.18l-4-12.39
	c5.42,3.2,11.2-4,17.42-5c4.45-0.71,8.66,1.89,12.76,3.76c17.8,8.14,41,4.1,55.32,17.43c1.957,1.695,3.474,3.84,4.42,6.25
	c0.661,2.271,0.931,4.638,0.8,7c0.117,6.312-0.511,12.615-1.87,18.78c-3.4,13.79-12.5,25.37-21.37,36.47
	c-1.68,2.11-3.57,4.35-6.21,4.94c-5.15,1.15-9.13-4.41-11.12-9.29c-2.636-6.466-4.581-13.194-5.8-20.07
	c-0.52-2.91-0.93-5.91-2.38-8.48c-3.1-5.49-10.74-10.69-15.38-14.95S857.03,44.92,852.77,40.27z"/>
<path fill="#632652" d="M852.77,39.27c-3.83-4.19-5.68-9.77-7.42-15.18l-4-12.39c5.42,3.2,11.2-4,17.42-5
	c4.45-0.71,8.66,1.89,12.76,3.76c17.8,8.14,41,4.1,55.32,17.43c1.957,1.695,3.474,3.84,4.42,6.25c0.661,2.271,0.931,4.638,0.8,7
	c0.117,6.312-0.511,12.615-1.87,18.78c-3.4,13.79-12.5,25.37-21.37,36.47c-1.68,2.11-3.57,4.35-6.21,4.94
	c-5.15,1.15-9.13-4.41-11.12-9.29c-2.636-6.466-4.581-13.194-5.8-20.07c-0.52-2.91-0.93-5.91-2.38-8.48
	c-3.1-5.49-10.74-10.69-15.38-14.95S857.03,43.92,852.77,39.27z"/>
<ellipse fill="#F7C4A7" cx="885" cy="69.5" rx="3" ry="6.5"/>
<path opacity="0.1" enable-background="new    " d="M903,243c0,0-2,6-12,5s-39-3-39,0"/>
<path opacity="0.5" fill="#FFFFFF" enable-background="new    " d="M823.5,581.5c-1.8-1.66-2.7-3-2.91-4.17
	c-0.26,1.3,0.54,3,2.91,5.17c13,12,89,14,89,14s0-0.35,0-1C912.01,595.49,836.46,593.46,823.5,581.5z"/>
<path opacity="0.5" fill="#FFFFFF" enable-background="new    " d="M763.5,514.5c-15,4-80-22-83-25
	c-0.4-0.406-0.686-0.909-0.83-1.46c-0.353,1.219-0.037,2.534,0.83,3.46c3,3,68,29,83,25c7.72-2.06,9.44-11.73,9.3-20.64
	C772.65,504.16,770.64,512.58,763.5,514.5z"/>
<path fill="#67647E" d="M502.09,503.74c0.828,0,1.5-0.672,1.5-1.5s-0.672-1.5-1.5-1.5s-1.5,0.672-1.5,1.5
	S501.262,503.74,502.09,503.74z"/>
<path fill="#A8A8A8" d="M91.49,477.21c0,0,37.32-1.15,48.56-9.16s57.4-17.57,60.19-4.73s56.09,63.88,13.92,64.26
	s-97.89-6.56-109.12-13.4S91.49,477.21,91.49,477.21z"/>
<path opacity="0.2" enable-background="new    " d="M214.95,523.07c-42.13,0.34-97.89-6.56-109.12-13.4
	c-8.55-5.21-12-23.89-13.09-32.51h-1.25c0,0,2.36,30.1,13.59,36.93s66.99,13.79,109.08,13.49c12.16-0.1,16.36-4.42,16.13-10.83
	C228.64,520.58,224,523,214.95,523.07z"/>
<path fill="#6C63FF" d="M1031.48,573.16h-85.32c-4.882,0-8.84-3.958-8.84-8.84V541c0-4.882,3.958-8.84,8.84-8.84h85.32
	c4.882,0,8.84,3.958,8.84,8.84v23.32C1040.32,569.202,1036.362,573.16,1031.48,573.16z"/>
<path opacity="0.1" enable-background="new    " d="M1031.48,573.16h-85.32c-4.882,0-8.84-3.958-8.84-8.84V541
	c0-4.882,3.958-8.84,8.84-8.84h85.32c4.882,0,8.84,3.958,8.84,8.84v23.32C1040.32,569.202,1036.362,573.16,1031.48,573.16z"/>
<path fill="#6C63FF" d="M946.16,493.16h85.32c4.882,0,8.84,3.958,8.84,8.84v23.32c0,4.882-3.958,8.84-8.84,8.84h-85.32
	c-4.882,0-8.84-3.958-8.84-8.84V502C937.32,497.118,941.278,493.16,946.16,493.16z"/>
<path fill="#6C63FF" d="M1031.48,493.16h-85.32c-4.882,0-8.84-3.958-8.84-8.84V461c0-4.882,3.958-8.84,8.84-8.84h85.32
	c4.882,0,8.84,3.958,8.84,8.84v23.32C1040.32,489.202,1036.362,493.16,1031.48,493.16z"/>
<path opacity="0.1" enable-background="new    " d="M1031.48,493.16h-85.32c-4.882,0-8.84-3.958-8.84-8.84V461
	c0-4.882,3.958-8.84,8.84-8.84h85.32c4.882,0,8.84,3.958,8.84,8.84v23.32C1040.32,489.202,1036.362,493.16,1031.48,493.16z"/>
<path fill="#6C63FF" d="M946.16,411.16h85.32c4.882,0,8.84,3.958,8.84,8.84v23.32c0,4.882-3.958,8.84-8.84,8.84h-85.32
	c-4.882,0-8.84-3.958-8.84-8.84V420C937.32,415.118,941.278,411.16,946.16,411.16z"/>
</svg>
