<?xml version="1.0" encoding="utf-8"?>
<!-- Generator: Adobe Illustrator 17.0.0, SVG Export Plug-In . SVG Version: 6.00 Build 0)  -->
<!DOCTYPE svg PUBLIC "-//W3C//DTD SVG 1.1//EN" "http://www.w3.org/Graphics/SVG/1.1/DTD/svg11.dtd">
<svg version="1.1" xmlns="http://www.w3.org/2000/svg" xmlns:xlink="http://www.w3.org/1999/xlink" x="0px" y="0px" width="960px"
	 height="560px" viewBox="0 0 960 560" enable-background="new 0 0 960 560" xml:space="preserve">
<g id="Layer_3">
	<linearGradient id="SVGID_1_" gradientUnits="userSpaceOnUse" x1="49.632" y1="550.5828" x2="-21.7384" y2="426.9657">
		<stop  offset="0" style="stop-color:#FFFFFF"/>
		<stop  offset="1" style="stop-color:#3548CB;stop-opacity:0.1"/>
	</linearGradient>
	<path fill="url(#SVGID_1_)" d="M3.018,412.673C40.233,412.673,80,499.962,80,526.26c0,26.297-96.971,21.868-80.197,38.418"/>
</g>
<g id="Layer_4">
	<linearGradient id="SVGID_2_" gradientUnits="userSpaceOnUse" x1="961.8723" y1="74.234" x2="874.1064" y2="74.234">
		<stop  offset="0" style="stop-color:#FFFFFF"/>
		<stop  offset="1" style="stop-color:#F27576;stop-opacity:0"/>
	</linearGradient>
	<linearGradient id="SVGID_3_" gradientUnits="userSpaceOnUse" x1="873.6064" y1="74.234" x2="961.8723" y2="74.234">
		<stop  offset="0" style="stop-color:#FFFFFF"/>
		<stop  offset="1" style="stop-color:#EDE4FF"/>
	</linearGradient>
	<path fill="url(#SVGID_2_)" stroke="url(#SVGID_3_)" stroke-miterlimit="10" d="M961.872,148.468
		c-48.472,0-87.766-41.742-87.766-93.234C874.106,6.409,913.401,0,961.872,0"/>
</g>
<g id="Layer_1">
	<g id="Layer_11">
		<rect x="124" y="50" fill="#3548CB" width="20" height="10"/>
	</g>
	<g id="Layer_10">
		<rect x="903" y="270" fill="#4DDDBA" width="23" height="13"/>
	</g>
	<g id="Layer_9">
		<rect x="504" y="139" fill="#3548CB" width="10" height="12"/>
	</g>
	<g id="Layer_8">
		<rect x="860" y="483" fill="#3548CB" width="18" height="15"/>
	</g>
	<g id="Layer_7">
		<ellipse fill="#FF9597" cx="388.617" cy="262.532" rx="12.234" ry="6.915"/>
	</g>
	<g id="Layer_6">
		<ellipse fill="#FF9597" cx="187.505" cy="511.468" rx="8.995" ry="5.851"/>
	</g>
	<g id="Layer_5">
		<ellipse fill="#FF9597" cx="231.468" cy="104.362" rx="9.043" ry="5.362"/>
	</g>
</g>
</svg>
